<?xml version="1.0" encoding="utf-8"?>
<!-- Generator: Adobe Illustrator 26.0.1, SVG Export Plug-In . SVG Version: 6.00 Build 0)  -->
<svg version="1.1" id="Шар_1" xmlns="http://www.w3.org/2000/svg" xmlns:xlink="http://www.w3.org/1999/xlink" x="0px" y="0px"
	 viewBox="0 0 409 73" style="enable-background:new 0 0 409 73;" xml:space="preserve">
<style type="text/css">
	.st0{fill:#0099CC;}
	.st1{font-family:'Calibri';}
	.st2{font-size:100px;}
	.st3{fill:#808080;stroke:#000000;stroke-width:4;stroke-miterlimit:10;}
	.st4{fill:#808080;stroke:#000000;stroke-width:3;stroke-miterlimit:10;}
	.st5{fill:none;stroke:#000000;stroke-width:4;stroke-miterlimit:10;}
	.st6{fill:none;stroke:#000000;stroke-width:5;stroke-miterlimit:10;}
</style>
<g>
	<path class="st0" d="M25.47,71c-9.35,0-16.96-7.61-16.96-16.96v-6.6c0-9.35,7.61-16.96,16.96-16.96h14.66
		c9.35,0,16.96,7.61,16.96,16.96v6.6c0,9.35-7.61,16.96-16.96,16.96H25.47z"/>
	<path d="M40.13,32.48c8.25,0,14.96,6.71,14.96,14.96v6.6c0,8.25-6.71,14.96-14.96,14.96H25.47c-8.25,0-14.96-6.71-14.96-14.96v-6.6
		c0-8.25,6.71-14.96,14.96-14.96H40.13 M40.13,28.48H25.47C15,28.48,6.51,36.97,6.51,47.44v6.6C6.51,64.51,15,73,25.47,73h14.66
		c10.47,0,18.96-8.49,18.96-18.96v-6.6C59.09,36.97,50.6,28.48,40.13,28.48L40.13,28.48z"/>
</g>
<text transform="matrix(1 0 0 1 59.2432 70.8379)" class="st0 st1 st2">ecureBit</text>
<path class="st3" d="M9.24,11"/>
<circle cx="32.85" cy="46.31" r="3.6"/>
<polygon points="35.94,56.85 30.07,56.85 31.54,48.88 34.47,48.88 "/>
<polyline class="st4" points="-423,-481 -423,-481 -423,-481 "/>
<path class="st5" d="M38.53,47.1c3.47,0.65,6.05,1.68,7.54,5.17c1.66,3.88,1.17,8.97-1.32,12.4c-5.78,7.94-18.32,6.87-26.25,3.53"/>
<path class="st6" d="M20.43,31.5c-0.88,5.84,3.73,10.08,8.31,12.76"/>
<path class="st6" d="M48.26,27c-0.04-0.57-0.71-9.09-8-13c-5.02-2.69-12.52-2.85-17,2c-4.34,4.7-3.16,11.21-3,12"/>
</svg>
